<?xml version="1.0" encoding="utf-8"?>
<!-- Generator: Adobe Illustrator 21.0.0, SVG Export Plug-In . SVG Version: 6.00 Build 0)  -->
<svg version="1.1" id="Layer_1" xmlns="http://www.w3.org/2000/svg" xmlns:xlink="http://www.w3.org/1999/xlink" x="0px" y="0px"
	 viewBox="0 0 325 325" style="enable-background:new 0 0 325 325;" xml:space="preserve">
<style type="text/css">
	.st0{clip-path:url(#SVGID_2_);}
	.st1{fill:#C78205;}
	.st2{fill:#67AABC;}
	.st3{fill:none;stroke:#FFFFFF;stroke-width:0.75;stroke-miterlimit:10;}
</style>
<rect x="-8.9" y="-8.9" class="st2" width="342.9" height="342.9"/>
<g>
	<path class="st3" d="M133.2,186.7c0,0,0.3,1.9,1.9,3c1.6,1.1,0,2.6,0,2.6s-1.8-0.6-3.8,0c0,0-1.6-1.5,0-2.6
		C132.9,188.6,133.2,186.7,133.2,186.7"/>
	<path class="st3" d="M162.2,59.4c0,0,0.5,13.3-3.6,14c0,0-1.2,2.4,1.8,5.3c0,0,1.3,3.6-2.6,5.3v1.4c0,0-5.3,1-5.3,6.9
		c0,0-0.1,3.9,2.4,5.3c0,0-2.1,0.9-1.5,2.4s1.6,1.7,1.8,5.1s0,9.5,0,9.5h-1l-0.6,3.7c0,0,1.8,0.2,1.7,2.1
		c-0.1,1.9-7.5,30.2-7.5,30.2h-2.1v2.3h-1v3.5h-1.4v2.1h-1.2v2.5v3.2l-3.8,5.6c0,0,2.3,0.3,2.7,2v2.4c0,0-0.5,1.5-1.2,1.9h-1.5v4.4
		c0,0-0.2,1.7-1.4,1.9H135v6.2"/>
	<line class="st3" x1="131.3" y1="192.3" x2="131.3" y2="195.1"/>
	<line class="st3" x1="135.1" y1="192.3" x2="135.1" y2="199"/>
	<path class="st3" d="M143.4,185.1c0,0,0.3,1.9,1.9,3s0,2.6,0,2.6s-1.8-0.6-3.8,0c0,0-1.6-1.5,0-2.6S143.4,185.1,143.4,185.1"/>
	<polyline class="st3" points="141.5,190.7 141.5,193.1 141.5,197.6 	"/>
	<line class="st3" x1="145.3" y1="190.7" x2="145.3" y2="197.6"/>
	<path class="st3" d="M155.7,183.7c0,0,0.3,1.9,1.9,3c1.6,1.1,0,2.6,0,2.6s-1.8-0.6-3.8,0c0,0-1.6-1.5,0-2.6
		S155.7,183.7,155.7,183.7"/>
	<polyline class="st3" points="153.8,189.3 153.8,191.6 153.8,196.2 	"/>
	<line class="st3" x1="157.6" y1="189.3" x2="157.6" y2="196.2"/>
	<path class="st3" d="M128.1,192.1c0,0,0.8,1.8-6,8s-2.7,11.8-2.7,11.8s3-1.7,9.3-1.7c6.3,0,9.2,1.7,9.2,1.7s4.1-5.6-2.7-11.8
		s-6-8-6-8"/>
	<path class="st3" d="M120.1,211.7v17.7c0,0,3.2-1.6,8.6-1.6c0,0,6.1,0,8.7,1.6v-17.7"/>
	<path class="st3" d="M108.1,240.3c0,0-3.2,0.3-2.6,7.8v30.2h114"/>
	<path class="st3" d="M117,231.2h-1.6c-1.4,0-2.5,0.9-3,2.2l-0.6,1.9"/>
	<path class="st3" d="M111.2,245.4c0,0-0.5-6.4,5.8-6.4c6.3,0,6.6,6.4,6.6,6.4s0.7-6.4,6.9-6.4c6.2,0,6.9,6.4,6.9,6.4
		s0.5-6.4,6.7-6.4c6.2,0,6.2,6.4,6.2,6.4h2v32.9"/>
	<path class="st3" d="M111.2,278.3v-32.9c0-5.5-3.1-5.1-3.1-5.1s-0.2-5.2,2.8-5.2c3,0,2.9,4.6,2.9,4.6s-0.4-6,5.4-6
		c5.8,0,5.4,5.3,5.4,5.3s0.3-5.3,6.1-5.3c5.8,0,6.2,5.3,6.2,5.3s1-5,6.1-5s5.6,5.4,5.6,5.4h4.6"/>
	<path class="st3" d="M116.4,234.3c0,0-0.3-4.9,3.7-4.9s4,4.7,4,4.7s0.5-5.6,6.5-5.6c6,0,6.5,5.8,6.5,5.8s-0.1-4.9,4.3-4.9
		c4.4,0,4.5,5.3,4.5,5.3"/>
	<line class="st3" x1="111.2" y1="245.4" x2="150.3" y2="245.4"/>
	<path class="st3" d="M143.8,278.3v-24.4c1.2,0,1-1.1,1-1.1s-1.4-6.1-14-6.1s-14.4,6.1-14.4,6.1s-0.5,1.5,1.2,1.1v24.3"/>
	<path class="st3" d="M117.5,253.9c0,0,1-3.4,13.2-3.4c12.3,0,13,3.3,13,3.3"/>
	<path class="st3" d="M128.8,268.7v-7.8c0,0-0.4-2.8,1.8-2.8s2,2.7,2,2.7v7.9H128.8z"/>
	<path class="st3" d="M120.1,213.8c0,0,2.1-1.8,8.6-1.8c6.5,0,8.7,1.4,8.7,1.4"/>
	<path class="st3" d="M120.1,216.5c0,0,2.7-1.4,8.6-1.4s8.7,1.1,8.7,1.1"/>
	<path class="st3" d="M127.4,226.8v-6.9c0,0-0.4-3.2,1.3-3.2s1.5,3.2,1.5,3.2v6.9H127.4z"/>
	<path class="st3" d="M150.3,245.4c0,0,1.7-10.1,12.2-10.1s12.2,10.1,12.2,10.1"/>
	<path class="st3" d="M156.4,265.4V255c0,0-0.3-2.7,1.8-2.7s2.1,2.7,2.1,2.7v10.2L156.4,265.4z"/>
	<path class="st3" d="M168.2,232.2v-27.6c0,0,0.5-3.6-2.1-3.6c-2.9,0-2.6,3.4-2.6,3.4h-1.9c0-3.9-2.6-3.4-2.6-3.4
		c-2.6,0-2.1,3.6-2.1,3.6v27.6H168.2z"/>
	<path class="st3" d="M152.3,226.8h-6.6v-20.7c0,0-0.6-3.6,2.9-3.6c3,0,2.7,3.3,2.7,3.3h1.1V226.8z"/>
	<polyline class="st3" points="145.7,226.8 145.7,226.8 141.5,226.8 141.5,199.8 149.6,199.8 150.9,198.3 169.6,198.3 	"/>
	<polyline class="st3" points="137.1,200.9 141.5,197.6 147.9,197.6 149,196.2 169.6,196.2 	"/>
	<polyline class="st3" points="141.5,197.6 141.5,199.8 138,202.5 	"/>
	<line class="st3" x1="150.9" y1="198.3" x2="149" y2="196.2"/>
	<path class="st3" d="M135.1,194.2c0,0,3.5-0.1,3.5,5.6c0,0-0.2-5.1,2.9-6.1"/>
	<path class="st3" d="M145.3,192.7c0,0,3.7-0.7,5.2,3.5c0,0,0.7-4.3,3.3-4.6"/>
	<path class="st3" d="M157.6,191.6c0,0,3.2-0.4,4.9,2.6"/>
	<path class="st3" d="M141,173.8c0,0,0.3,1.3,1.8,1.9c1.5,0.6,1.7,3.2,1.7,3.2s0-3.5,2.4-4.7s2.2-2,2.2-2"/>
	<path class="st3" d="M153.9,177.5c0,0,0.1-2.7,2.4-3.7c2.3-1.1,2.4-2.4,2.4-2.4"/>
	<path class="st3" d="M162.5,174.9c-0.3-0.4-0.8-0.8-1.4-1.1c-2.3-1.1-2.4-2.4-2.4-2.4"/>
	<path class="st3" d="M156.5,162.1c0,0,0.1-2.7,2.4-3.7c2.3-1.1,2.4-2.4,2.4-2.4"/>
	<path class="st3" d="M162.5,157.7c-1.1-0.9-1.2-1.7-1.2-1.7"/>
	<path class="st3" d="M153.9,177.5c0,0-0.2-2.3-2.6-3.4c-2.3-1.1-2.3-1.9-2.3-1.9"/>
	<path class="st3" d="M138.3,180.1c0,0,0.3,1.3,1.8,1.9s1.7,3.2,1.7,3.2s0-3.5,2.4-4.7s2.2-2,2.2-2"/>
	<path class="st3" d="M151.2,183.8c0,0,0.1-2.7,2.4-3.7c2.3-1.1,2.4-2.4,2.4-2.4"/>
	<path class="st3" d="M160.6,183.5c0,0,0.1-2.3,1.9-3.5"/>
	<path class="st3" d="M160.5,183.4c0,0,0.2-2.3-2.1-3.4c-2.3-1.1-2.4-2.4-2.4-2.4"/>
	<path class="st3" d="M151.2,183.8c0,0-0.2-2.3-2.6-3.4c-2.3-1.1-2.3-1.9-2.3-1.9"/>
	<polyline class="st3" points="168.1,161.9 157.1,161.9 142.1,163.8 142.7,166.3 	"/>
	<polyline class="st3" points="140.1,170.2 142.7,166.3 157.3,164.3 168.1,164.3 	"/>
	<line class="st3" x1="157.1" y1="161.9" x2="157.3" y2="164.3"/>
	<polyline class="st3" points="158.7,153.8 155.6,148.6 152.5,154.2 149.6,148.6 146.2,154.2 	"/>
	<path class="st3" d="M142.7,163.7c0,0-1.1-2,1.4-3.4c1.6-0.8,1.8-1.9,1.8-1.9s0.4,1.1,1.3,1.3c1,0.2,2.4,1.6,2.3,3.1"/>
	<path class="st3" d="M149.6,162.8c0,0-1.1-2,1.4-3.4c1.6-0.8,1.8-1.9,1.8-1.9s0.4,1.1,1.3,1.3c1,0.2,2.4,1.6,2.3,3.1"/>
	<path class="st3" d="M145.1,159.6c0,0-1.1-2,1.4-3.4c1.6-0.8,1.8-1.9,1.8-1.9s0.4,1.1,1.3,1.3c1,0.2,2.4,1.6,2.2,3.1"/>
	<path class="st3" d="M152,158.7c0,0-1.1-2,1.4-3.4c1.6-0.8,1.8-1.9,1.8-1.9s0.4,1.1,1.3,1.3s2.4,1.6,2.2,3.1l0,0.6"/>
	<polyline class="st3" points="155.4,120.2 160.8,115.9 158.7,153.8 162.5,148.2 166.3,153.8 164,116 169.6,120.2 	"/>
	<polygon class="st3" points="164,116 162.5,112.9 160.8,115.9 159.1,113.5 158,116.2 156.4,113.5 155,117.7 158,116.4 160.8,116 	
		"/>
	<path class="st3" d="M134.2,188.8c0.5-0.2,1.5-1.1,1.9-2.4c0,0,0.7,1.1,1,1.3c0.3,0.2,2.6,1,3,3.5c0,0,0.2-1.7,0.8-2.4"/>
	<path class="st3" d="M145.4,188.1c0-1.1,0.9-1.9,1.9-1.9s1.9,0.9,1.9,1.9h0.1c0-1.1,0.9-1.9,1.9-1.9c1.1,0,1.9,0.9,1.9,1.9"/>
	<path class="st3" d="M158.3,188.1c0-1.1,0.9-2.1,2.1-2.1s2.1,0.9,2.1,2.1h0.1c0-1.1,0.9-2.1,2.1-2.1s2.1,0.9,2.1,2.1"/>
	<path class="st3" d="M191.8,186.7c0,0-0.3,1.9-1.9,3c-1.6,1.1,0,2.6,0,2.6s1.8-0.6,3.8,0c0,0,1.6-1.5,0-2.6
		C192.1,188.6,191.8,186.7,191.8,186.7"/>
	<path class="st3" d="M162.8,59.4c0,0-0.5,13.3,3.6,14c0,0,1.2,2.4-1.8,5.3c0,0-1.3,3.6,2.6,5.3v1.4c0,0,5.3,1,5.3,6.9
		c0,0,0.1,3.9-2.4,5.3c0,0,2.1,0.9,1.5,2.4s-1.6,1.7-1.8,5.1s0,9.5,0,9.5h1l0.6,3.7c0,0-1.8,0.2-1.7,2.1c0.1,1.9,7.5,30.2,7.5,30.2
		h2.1v2.3h1v3.5h1.4v2.1h1.2v2.5v3.2l3.8,5.6c0,0-2.3,0.3-2.7,2v2.4c0,0,0.5,1.5,1.2,1.9h1.5v4.4c0,0,0.2,1.7,1.4,1.9h1.9v6.2"/>
	<line class="st3" x1="193.7" y1="192.3" x2="193.7" y2="195.1"/>
	<line class="st3" x1="189.9" y1="192.3" x2="189.9" y2="199"/>
	<path class="st3" d="M181.6,185.1c0,0-0.3,1.9-1.9,3s0,2.6,0,2.6s1.8-0.6,3.8,0c0,0,1.6-1.5,0-2.6S181.6,185.1,181.6,185.1"/>
	<polyline class="st3" points="183.5,190.7 183.5,193.1 183.5,197.6 	"/>
	<line class="st3" x1="179.7" y1="190.7" x2="179.7" y2="197.6"/>
	<path class="st3" d="M169.3,183.7c0,0-0.3,1.9-1.9,3c-1.6,1.1,0,2.6,0,2.6s1.8-0.6,3.8,0c0,0,1.6-1.5,0-2.6
		S169.3,183.7,169.3,183.7"/>
	<polyline class="st3" points="171.2,189.3 171.2,191.6 171.2,196.2 	"/>
	<line class="st3" x1="167.4" y1="189.3" x2="167.4" y2="196.2"/>
	<path class="st3" d="M196.9,192.1c0,0-0.8,1.8,6,8s2.7,11.8,2.7,11.8s-3-1.7-9.3-1.7c-6.3,0-9.2,1.7-9.2,1.7s-4.1-5.6,2.7-11.8
		s6-8,6-8"/>
	<path class="st3" d="M204.9,211.7v17.7c0,0-3.2-1.6-8.6-1.6c0,0-6.1,0-8.7,1.6v-17.7"/>
	<path class="st3" d="M216.9,240.3c0,0,3.2,0.3,2.6,7.8v30.2"/>
	<path class="st3" d="M208,231.2h1.6c1.4,0,2.5,0.9,3,2.2l0.6,1.9"/>
	<path class="st3" d="M213.8,245.4c0,0,0.5-6.4-5.8-6.4s-6.6,6.4-6.6,6.4s-0.7-6.4-6.9-6.4c-6.2,0-6.9,6.4-6.9,6.4s-0.5-6.4-6.7-6.4
		c-6.2,0-6.2,6.4-6.2,6.4h-2v32.9"/>
	<path class="st3" d="M213.8,278.3v-32.9c0-5.5,3.1-5.1,3.1-5.1s0.2-5.2-2.8-5.2s-2.9,4.6-2.9,4.6s0.4-6-5.4-6
		c-5.8,0-5.4,5.3-5.4,5.3s-0.3-5.3-6.1-5.3c-5.8,0-6.2,5.3-6.2,5.3s-1-5-6.1-5s-5.6,5.4-5.6,5.4h-4.7"/>
	<path class="st3" d="M208.6,234.3c0,0,0.3-4.9-3.7-4.9s-4,4.7-4,4.7s-0.5-5.6-6.5-5.6c-6,0-6.5,5.8-6.5,5.8s0.1-4.9-4.3-4.9
		c-4.4,0-4.5,5.3-4.5,5.3"/>
	<line class="st3" x1="213.8" y1="245.4" x2="174.7" y2="245.4"/>
	<path class="st3" d="M181.2,278.3v-24.4c-1.2,0-1-1.1-1-1.1s1.4-6.1,14-6.1s14.4,6.1,14.4,6.1s0.5,1.5-1.2,1.1v24.3"/>
	<path class="st3" d="M207.5,253.9c0,0-1-3.4-13.2-3.4c-12.3,0-13,3.3-13,3.3"/>
	<path class="st3" d="M196.2,268.7v-7.8c0,0,0.4-2.8-1.8-2.8s-2,2.7-2,2.7v7.9H196.2z"/>
	<path class="st3" d="M204.9,213.8c0,0-2.1-1.8-8.6-1.8s-8.7,1.4-8.7,1.4"/>
	<path class="st3" d="M204.9,216.5c0,0-2.7-1.4-8.6-1.4s-8.7,1.1-8.7,1.1"/>
	<path class="st3" d="M197.6,226.8v-6.9c0,0,0.4-3.2-1.3-3.2s-1.5,3.2-1.5,3.2v6.9H197.6z"/>
	<path class="st3" d="M168.6,265.4V255c0,0,0.3-2.7-1.8-2.7s-2.1,2.7-2.1,2.7v10.2L168.6,265.4z"/>
	<path class="st3" d="M172.7,226.8h6.6v-20.7c0,0,0.6-3.6-2.9-3.6c-3,0-2.7,3.3-2.7,3.3h-1.1V226.8z"/>
	<polyline class="st3" points="179.3,226.8 179.3,226.8 183.5,226.8 183.5,199.8 175.4,199.8 174.1,198.3 155.4,198.3 	"/>
	<polyline class="st3" points="187.9,200.9 183.5,197.6 177.1,197.6 176,196.2 155.4,196.2 	"/>
	<polyline class="st3" points="183.5,197.6 183.5,199.8 187,202.5 	"/>
	<line class="st3" x1="174.1" y1="198.3" x2="176" y2="196.2"/>
	<path class="st3" d="M189.9,194.2c0,0-3.5-0.1-3.5,5.6c0,0,0.2-5.1-2.9-6.1"/>
	<path class="st3" d="M179.7,192.7c0,0-3.7-0.7-5.2,3.5c0,0-0.7-4.3-3.3-4.6"/>
	<path class="st3" d="M167.4,191.6c0,0-3.2-0.4-4.9,2.6"/>
	<path class="st3" d="M184,173.8c0,0-0.3,1.3-1.8,1.9c-1.5,0.6-1.7,3.2-1.7,3.2s0-3.5-2.4-4.7s-2.2-2-2.2-2"/>
	<path class="st3" d="M171.1,177.5c0,0-0.1-2.7-2.4-3.7c-2.3-1.1-2.4-2.4-2.4-2.4"/>
	<path class="st3" d="M162.5,174.8c0.3-0.4,0.8-0.8,1.4-1.1c2.3-1.1,2.4-2.4,2.4-2.4"/>
	<path class="st3" d="M168.5,162.1c0,0-0.1-2.7-2.4-3.7c-2.3-1.1-2.4-2.4-2.4-2.4"/>
	<path class="st3" d="M162.5,157.7c1.1-0.9,1.2-1.7,1.2-1.7"/>
	<path class="st3" d="M171.1,177.5c0,0,0.2-2.3,2.6-3.4c2.3-1.1,2.3-1.9,2.3-1.9"/>
	<path class="st3" d="M186.7,180.1c0,0-0.3,1.3-1.8,1.9s-1.7,3.2-1.7,3.2s0-3.5-2.4-4.7s-2.2-2-2.2-2"/>
	<path class="st3" d="M173.8,183.8c0,0-0.1-2.7-2.4-3.7c-2.3-1.1-2.4-2.4-2.4-2.4"/>
	<path class="st3" d="M164.4,183.5c0,0-0.1-2.3-1.9-3.5"/>
	<path class="st3" d="M164.5,183.4c0,0-0.2-2.3,2.1-3.4c2.3-1.1,2.4-2.4,2.4-2.4"/>
	<path class="st3" d="M173.8,183.8c0,0,0.2-2.3,2.6-3.4c2.3-1.1,2.3-1.9,2.3-1.9"/>
	<polyline class="st3" points="156.9,161.9 167.9,161.9 182.9,163.8 182.3,166.3 	"/>
	<polyline class="st3" points="184.9,170.2 182.3,166.3 167.7,164.3 156.9,164.3 	"/>
	<line class="st3" x1="167.9" y1="161.9" x2="167.7" y2="164.3"/>
	<polyline class="st3" points="178.8,154.2 175.4,148.6 172.5,154.2 169.4,148.6 166.3,153.8 	"/>
	<path class="st3" d="M182.3,163.7c0,0,1.1-2-1.4-3.4c-1.6-0.8-1.8-1.9-1.8-1.9s-0.4,1.1-1.3,1.3c-1,0.2-2.4,1.6-2.3,3.1"/>
	<path class="st3" d="M175.4,162.8c0,0,1.1-2-1.4-3.4c-1.6-0.8-1.8-1.9-1.8-1.9s-0.4,1.1-1.3,1.3c-1,0.2-2.4,1.6-2.3,3.1"/>
	<path class="st3" d="M179.9,159.6c0,0,1.1-2-1.4-3.4c-1.6-0.8-1.8-1.9-1.8-1.9s-0.4,1.1-1.3,1.3c-1,0.2-2.4,1.6-2.2,3.1"/>
	<path class="st3" d="M173,158.7c0,0,1.1-2-1.4-3.4c-1.6-0.8-1.8-1.9-1.8-1.9s-0.4,1.1-1.3,1.3s-2.4,1.6-2.2,3.1l0,0.6"/>
	<polyline class="st3" points="164.2,115.9 165.9,113.5 167,116.2 168.6,113.5 170,117.7 167,116.4 164.2,116 161,116 	"/>
	<path class="st3" d="M190.8,188.8c-0.5-0.2-1.5-1.1-1.9-2.4c0,0-0.7,1.1-1,1.3c-0.3,0.2-2.6,1-3,3.5c0,0-0.2-1.7-0.8-2.4"/>
	<path class="st3" d="M179.6,188.1c0-1.1-0.9-1.9-1.9-1.9s-1.9,0.9-1.9,1.9h-0.1c0-1.1-0.9-1.9-1.9-1.9c-1.1,0-1.9,0.9-1.9,1.9"/>
	<path class="st3" d="M152.3,245.4c0,0,1.7-3,10.2-3s10.2,3,10.2,3"/>
	<path class="st3" d="M152.3,246.7c0,0,3.9-2.8,10.2-2.8s10.2,2.8,10.2,2.8"/>
	<path class="st3" d="M154.9,97.4c0,0,2.3-0.7,7.6-0.7s7.6,0.7,7.6,0.7"/>
	<path class="st3" d="M157.8,85.3c0,0,2.3-0.9,4.7-0.9s4.7,0.9,4.7,0.9"/>
	<path class="st3" d="M158.6,73.3c0,0,1,0.9,3.9,0.9s3.9-0.9,3.9-0.9"/>
	<path class="st3" d="M160.4,78.6c0,0,1.2,0.5,2.1,0.5s2.1-0.5,2.1-0.5"/>
	<circle class="st3" cx="162.5" cy="58.2" r="1.2"/>
	<circle class="st3" cx="128.7" cy="190.9" r="1.2"/>
	<circle class="st3" cx="196.3" cy="190.9" r="1.2"/>
	<line class="st3" x1="128.6" y1="189.7" x2="128.6" y2="179.4"/>
	<line class="st3" x1="126.6" y1="182.6" x2="130.7" y2="182.6"/>
	<line class="st3" x1="196.3" y1="189.7" x2="196.3" y2="179.4"/>
	<line class="st3" x1="194.3" y1="182.6" x2="198.4" y2="182.6"/>
	<line class="st3" x1="162.5" y1="57.1" x2="162.5" y2="46.7"/>
	<line class="st3" x1="160.5" y1="50" x2="164.5" y2="50"/>
	<path class="st3" d="M160.6,111.4h3.4v-7c0,0,0.1-2.1-1.8-2.1s-1.7,2.3-1.7,2.3V111.4z"/>
</g>
</svg>
