<?xml version="1.0" encoding="utf-8"?>
<!-- Generator: Adobe Illustrator 21.0.0, SVG Export Plug-In . SVG Version: 6.00 Build 0)  -->
<svg version="1.1" id="Layer_1" xmlns="http://www.w3.org/2000/svg" xmlns:xlink="http://www.w3.org/1999/xlink" x="0px" y="0px"
	 viewBox="0 0 325 325" style="enable-background:new 0 0 325 325;" xml:space="preserve">
<style type="text/css">
	.st0{clip-path:url(#SVGID_2_);}
	.st1{fill:#C78205;}
	.st2{fill:#67AABC;}
	.st3{fill:none;stroke:#FFFFFF;stroke-width:0.75;stroke-miterlimit:10;}
</style>
<rect x="-13.8" y="-13.8" width="352.5" height="352.5"/>
<g>
	<path class="st1" d="M162.5,64.5l-75.9,132v55c0,0,17.4-49.5,75.9-49.5c58.6,0,75.9,49.5,75.9,49.5v-55L162.5,64.5z M97.1,226.5
		c-2.5,0-4.5-2-4.5-4.5s2-4.5,4.5-4.5c2.5,0,4.5,2,4.5,4.5S99.5,226.5,97.1,226.5z M105.6,217.9c-2.5,0-4.5-2-4.5-4.5s2-4.5,4.5-4.5
		s4.5,2,4.5,4.5S108.1,217.9,105.6,217.9z M115.7,210.5c-2.5,0-4.5-2-4.5-4.5s2-4.5,4.5-4.5s4.5,2,4.5,4.5S118.2,210.5,115.7,210.5z
		 M161.3,128.5c11.5,0,20.8,9.3,20.8,20.8s-9.3,20.8-20.8,20.8c-11.5,0-20.8-9.3-20.8-20.8S149.8,128.5,161.3,128.5z M153.1,121
		l8.2-15.5l8.5,15.5c0,0-2.8-1.9-8.5-1.9S153.1,121,153.1,121z M162.5,178c21.9,0,28.6-15,28.6-15l19,32c0,0-15.5-13-47.6-13
		c-32.1,0-49.4,13-49.4,13l17-32C130.1,163,140.6,178,162.5,178z M126.7,204c-2.5,0-4.5-2-4.5-4.5s2-4.5,4.5-4.5s4.5,2,4.5,4.5
		S129.2,204,126.7,204z M138.1,199.5c-2.5,0-4.5-2-4.5-4.5s2-4.5,4.5-4.5c2.5,0,4.5,2,4.5,4.5S140.5,199.5,138.1,199.5z M150,196.2
		c-2.5,0-4.5-2-4.5-4.5c0-2.5,2-4.5,4.5-4.5s4.5,2,4.5,4.5C154.5,194.2,152.5,196.2,150,196.2z M161.5,194.7c-2.5,0-4.5-2-4.5-4.5
		s2-4.5,4.5-4.5s4.5,2,4.5,4.5S164,194.7,161.5,194.7z M173.1,196.1c-2.5,0-4.5-2-4.5-4.5s2-4.5,4.5-4.5c2.5,0,4.5,2,4.5,4.5
		S175.5,196.1,173.1,196.1z M185,199.4c-2.5,0-4.5-2-4.5-4.5s2-4.5,4.5-4.5c2.5,0,4.5,2,4.5,4.5S187.5,199.4,185,199.4z
		 M196.4,203.9c-2.5,0-4.5-2-4.5-4.5s2-4.5,4.5-4.5s4.5,2,4.5,4.5S198.9,203.9,196.4,203.9z M207.4,210.4c-2.5,0-4.5-2-4.5-4.5
		s2-4.5,4.5-4.5s4.5,2,4.5,4.5S209.9,210.4,207.4,210.4z M217.5,217.9c-2.5,0-4.5-2-4.5-4.5s2-4.5,4.5-4.5s4.5,2,4.5,4.5
		S219.9,217.9,217.5,217.9z M226,226.4c-2.5,0-4.5-2-4.5-4.5s2-4.5,4.5-4.5c2.5,0,4.5,2,4.5,4.5S228.5,226.4,226,226.4z M232.1,206
		L162.3,84.5L92.6,206v-7l69.8-122l69.8,122V206z"/>
	<circle class="st1" cx="161.3" cy="149.3" r="15.7"/>
	<path class="st1" d="M86.6,260.5c0,0,21-51.5,75.9-51.5s75.9,51.5,75.9,51.5h-5.8c0,0-23.4-46-70.2-46s-70.3,46-70.3,46H86.6z"/>
</g>
</svg>
