<?xml version="1.0" encoding="utf-8"?>
<!-- Generator: Adobe Illustrator 21.0.0, SVG Export Plug-In . SVG Version: 6.00 Build 0)  -->
<svg version="1.1" id="Layer_1" xmlns="http://www.w3.org/2000/svg" xmlns:xlink="http://www.w3.org/1999/xlink" x="0px" y="0px"
	 viewBox="0 0 400 400" style="enable-background:new 0 0 400 400;" xml:space="preserve">
<style type="text/css">
	.st0{fill:#62A7B2;}
	.st1{fill:#1D1D1B;}
	.st2{fill:#CA8505;}
	.st3{fill:#313180;}
	.st4{fill:#E6E6E6;}
	.st5{fill:#E5D5BA;}
	.st6{fill:#D3E0E2;}
	.st7{fill:none;stroke:#CA8505;stroke-miterlimit:10;}
	.st8{clip-path:url(#SVGID_2_);}
	.st9{fill:#FFFFFF;}
	.st10{fill:#8F8F8F;}
	.st11{fill:#D3DFE2;}
	.st12{fill:#231F20;}
	.st13{fill:#61A5B1;}
	.st14{fill:#1C1C1C;}
	.st15{clip-path:url(#SVGID_6_);fill:#E4D5B9;}
	.st16{fill:none;stroke:#C88405;stroke-width:7;stroke-miterlimit:10;}
	.st17{fill:url(#SVGID_7_);}
	.st18{fill:url(#SVGID_8_);}
	.st19{fill:url(#SVGID_9_);}
	.st20{fill:url(#SVGID_10_);}
</style>
<g>
	<path class="st2" d="M299.4-278.1H100.3L89,954.7h221.8L299.4-278.1z M132.3,925.4h-12.8v-1159c0,0-1.5-13.6,5.7-13.6
		c7.2,0,7.2,13.6,7.2,13.6V925.4z M161.4,925.4h-12.8v-1159c0,0-1.5-13.6,5.7-13.6c7.2,0,7.2,13.6,7.2,13.6V925.4z M190.6,925.4
		h-12.8v-1159c0,0-1.5-13.6,5.7-13.6c7.2,0,7.2,13.6,7.2,13.6V925.4z M219.7,925.4h-12.8v-1159c0,0-1.5-13.6,5.7-13.6
		c7.2,0,7.2,13.6,7.2,13.6V925.4z M248.9,925.4H236v-1159c0,0-1.5-13.6,5.7-13.6c7.2,0,7.2,13.6,7.2,13.6V925.4z M278,925.4h-12.8
		v-1159c0,0-1.5-13.6,5.7-13.6s7.2,13.6,7.2,13.6V925.4z"/>
</g>
</svg>
