<?xml version="1.0" encoding="utf-8"?>
<!-- Generator: Adobe Illustrator 21.0.0, SVG Export Plug-In . SVG Version: 6.00 Build 0)  -->
<svg version="1.1" id="Layer_1" xmlns="http://www.w3.org/2000/svg" xmlns:xlink="http://www.w3.org/1999/xlink" x="0px" y="0px"
	 viewBox="0 0 400 400" style="enable-background:new 0 0 400 400;" xml:space="preserve">
<style type="text/css">
	.st0{fill:#62A7B2;}
	.st1{fill:#1D1D1B;}
	.st2{fill:#CA8505;}
	.st3{fill:#313180;}
	.st4{fill:#E6E6E6;}
	.st5{fill:#E5D5BA;}
	.st6{fill:#D3E0E2;}
	.st7{fill:none;stroke:#CA8505;stroke-miterlimit:10;}
	.st8{clip-path:url(#SVGID_2_);}
	.st9{fill:#FFFFFF;}
	.st10{fill:#8F8F8F;}
	.st11{fill:#D3DFE2;}
	.st12{fill:#231F20;}
	.st13{fill:#61A5B1;}
	.st14{fill:#1C1C1C;}
	.st15{clip-path:url(#SVGID_6_);fill:#E4D5B9;}
	.st16{fill:none;stroke:#C88405;stroke-width:7;stroke-miterlimit:10;}
	.st17{fill:url(#SVGID_7_);}
	.st18{fill:url(#SVGID_8_);}
	.st19{fill:url(#SVGID_9_);}
	.st20{fill:url(#SVGID_10_);}
</style>
<g>
	<g>
		<path class="st2" d="M103.2,210.4c0,0,2.1-5.4-5.1-9.9c0,0,5.4,4.7,12.4,3.6C110.4,204.1,110.9,211.6,103.2,210.4z"/>
		<path class="st2" d="M133.8,218.1c0.5,1.2,0.7,2.6,0.5,3.8c-0.4,2-1.8,3.6-5.2,3.3c-4.6-0.4-8.4-1-12-8.3
			c-0.7-1.5-1.6-2.9-2.7-4.2c-1.2-1.4-2.7-2.8-4-2.9l-1.1,0.6c0,0,2.2,1.1,3.1,6.9c0.9,5.8,4.4,9.4,6.5,9.2s3.1-1.7,3.1-1.7
			s2.7,2.7,0.3,5.4c-1.5,1.7-6.4,3.8-11.3-4.3c-4.9-8.1-5.1-15.6-5.1-15.6s3.3-0.9,3.9-3.2s0.5-2.3,0.5-2.3s2.6-5.1,9.4-2.4
			c6.8,2.8,10.4,5.4,15.3,4.8c0,0,4.6,0.1,3.2-4.5c0,0,6.8,0.6,4.8,7.5s-9.7,4.9-11.9,4.2c-2.2-0.6-12.8-10.3-16.8-8.4
			c0,0,6.2,4.7,8,8.5c0.5,1.1,1.1,2.1,1.9,2.9c1.9,2,5.3,4,9.3-0.3L133.8,218.1z"/>
		<path class="st2" d="M158,201.9c0.6,3.4,7.7,15.8-4.8,24.7c0,0-8.7,5.2-20.4-2.2c0,0-0.7,1.1-3,0.9c0,0,11.7,10.4,26.9,1.6
			s8.4-25,8.4-25H158z"/>
		<path class="st2" d="M179.7,201.9c0,0-10.8,27.5,19.4,27.5s20.3-27.5,20.3-27.5h-6.7c0,0,9.7,25.9-13.6,25.9S186,201.9,186,201.9
			H179.7z"/>
		<path class="st2" d="M190.5,201.9c0,0-6.7,23.7,9.3,23.7s8.8-23.7,8.8-23.7H190.5z"/>
		<path class="st2" d="M166.7,201.9c0,0,4.1,10.7,4.1,28.6h2c0,0,1.1-24,3.7-28.6H166.7z"/>
		<path class="st2" d="M295.8,210.4c0,0-2.1-5.4,5.1-9.9c0,0-5.4,4.7-12.4,3.6C288.5,204.1,288.1,211.6,295.8,210.4z"/>
		<path class="st2" d="M265.2,218.1c-0.5,1.2-0.7,2.6-0.5,3.8c0.4,2,1.8,3.6,5.2,3.3c4.6-0.4,8.4-1,12-8.3c0.7-1.5,1.6-2.9,2.7-4.2
			c1.2-1.4,2.7-2.8,4-2.9l1.1,0.6c0,0-2.2,1.1-3.1,6.9c-0.9,5.8-4.4,9.4-6.5,9.2s-3.1-1.7-3.1-1.7s-2.7,2.7-0.3,5.4
			c1.5,1.7,6.4,3.8,11.3-4.3s5.1-15.6,5.1-15.6s-3.3-0.9-3.9-3.2c-0.5-2.3-0.5-2.3-0.5-2.3s-2.6-5.1-9.4-2.4s-10.4,5.4-15.3,4.8
			c0,0-4.6,0.1-3.2-4.5c0,0-6.8,0.6-4.8,7.5s9.7,4.9,11.9,4.2c2.2-0.6,12.8-10.3,16.8-8.4c0,0-6.2,4.7-8,8.5
			c-0.5,1.1-1.1,2.1-1.9,2.9c-1.9,2-5.3,4-9.3-0.3L265.2,218.1z"/>
		<path class="st2" d="M240.9,201.9c-0.6,3.4-7.7,15.8,4.8,24.7c0,0,8.7,5.2,20.4-2.2c0,0,0.7,1.1,3,0.9c0,0-11.7,10.4-26.9,1.6
			c-15.2-8.8-8.4-25-8.4-25H240.9z"/>
		<path class="st2" d="M232.3,201.9c0,0-4.1,10.7-4.1,28.6h-2c0,0-1.1-24-3.7-28.6H232.3z"/>
	</g>
	<path class="st2" d="M317.8,201.6H83.7c-9.8,0-17.8-8-17.8-17.8v-11.3c0-9.8,8-17.8,17.8-17.8h234.1c9.8,0,17.8,8,17.8,17.8v11.3
		C335.6,193.6,327.6,201.6,317.8,201.6z"/>
	<path class="st2" d="M71,259.3c40.2-16.8,13.7-57.6,13.7-57.6h10.8c0,0,21.2,16.8,5.4,57.6"/>
	<path class="st2" d="M328.6,259.3c-40.2-16.8-13.7-57.6-13.7-57.6h-10.8c0,0-21.2,16.8-5.4,57.6"/>
	<path class="st2" d="M335,317.3H66.4c-12.1,0-22.1-9.9-22.1-22.1v-13.9c0-12.1,9.9-22.1,22.1-22.1H335c12.1,0,22.1,9.9,22.1,22.1
		v13.9C357.1,307.4,347.2,317.3,335,317.3z"/>
	<rect x="62.2" y="317.2" class="st2" width="277" height="6.9"/>
	<rect x="44.3" y="382.1" class="st2" width="312.8" height="17.9"/>
	<path class="st2" d="M299.4-1078.1H100.3L89,154.7h221.8L299.4-1078.1z M132.3,125.4h-12.8v-1159c0,0-1.5-13.6,5.7-13.6
		c7.2,0,7.2,13.6,7.2,13.6V125.4z M161.4,125.4h-12.8v-1159c0,0-1.5-13.6,5.7-13.6c7.2,0,7.2,13.6,7.2,13.6V125.4z M190.6,125.4
		h-12.8v-1159c0,0-1.5-13.6,5.7-13.6c7.2,0,7.2,13.6,7.2,13.6V125.4z M219.7,125.4h-12.8v-1159c0,0-1.5-13.6,5.7-13.6
		c7.2,0,7.2,13.6,7.2,13.6V125.4z M248.9,125.4H236v-1159c0,0-1.5-13.6,5.7-13.6c7.2,0,7.2,13.6,7.2,13.6V125.4z M278,125.4h-12.8
		v-1159c0,0-1.5-13.6,5.7-13.6s7.2,13.6,7.2,13.6V125.4z"/>
	<g>
		<path class="st2" d="M55.3,347.3c0,5.7,7.7,4.7,7.7,4.7s-0.8-1.6-3.2-3.2c-2.3-1.7-0.2-3.2,0.8-3.2c1,0,3.8,0.7,4,4.2
			c0.2,3.5,3.3,4.3,4.4,4.3c1,0,7.4,1.8,8.4,2.8c1,1,2.2,2.5,2.2,2.5h1.7c0,0,1.3-3.2,3.5-4.2c2.2-1,7.7-1.7,8.9-2.2
			c1.2-0.5-0.8-3-0.8-5c0-2,2.5-2.7,3.5-2.4l0.1,0c1-0.3,3.7,0.3,3.7,2.3c0,2-2,4.5-0.8,5c1.2,0.5,6.7,1.2,8.9,2.2s3.5,4.2,3.5,4.2
			l4.3,0c0,0,1.3-3.2,3.5-4.2c2.2-1,7.7-1.7,8.9-2.2c1.2-0.5-0.8-3-0.8-5c0-2,2.5-2.7,3.5-2.4l0.1,0c1-0.3,3.7,0.3,3.7,2.3
			c0,2-2,4.5-0.8,5c1.2,0.5,6.7,1.2,8.9,2.2s3.5,4.2,3.5,4.2l4.3,0c0,0,1.3-3.2,3.5-4.2c2.2-1,7.7-1.7,8.9-2.2c1.2-0.5-0.8-3-0.8-5
			c0-2,2.5-2.7,3.5-2.4l0.1,0c1-0.3,3.7,0.3,3.7,2.3c0,2-2,4.5-0.8,5c1.2,0.5,6.7,1.2,8.9,2.2c2.2,1,3.5,4.2,3.5,4.2l4.3,0
			c0,0,1.3-3.2,3.5-4.2c2.2-1,7.7-1.7,8.9-2.2c1.2-0.5-0.8-3-0.8-5c0-2,2.5-2.7,3.5-2.4l0.1,0c1-0.3,3.7,0.3,3.7,2.3
			c0,2-2,4.5-0.8,5c1.2,0.5,6.7,1.2,8.9,2.2c2.2,1,3.5,4.2,3.5,4.2h4.3c0,0,1.3-3.2,3.5-4.2s7.7-1.7,8.9-2.2c1.2-0.5-0.8-3-0.8-5
			c0-2,2.7-2.7,3.7-2.3l0.1,0c1-0.3,3.5,0.4,3.5,2.4c0,2-2,4.5-0.8,5c1.2,0.5,6.7,1.2,8.9,2.2c2.2,1,3.5,4.2,3.5,4.2l4.3,0
			c0,0,1.3-3.2,3.5-4.2c2.2-1,7.7-1.7,8.9-2.2c1.2-0.5-0.8-3-0.8-5c0-2,2.7-2.7,3.7-2.3l0.1,0c1-0.3,3.5,0.4,3.5,2.4
			c0,2-2,4.5-0.8,5c1.2,0.5,6.7,1.2,8.9,2.2c2.2,1,3.5,4.2,3.5,4.2l4.3,0c0,0,1.3-3.2,3.5-4.2s7.7-1.7,8.9-2.2c1.2-0.5-0.8-3-0.8-5
			c0-2,2.7-2.7,3.7-2.3l0.1,0c1-0.3,3.5,0.4,3.5,2.4c0,2-2,4.5-0.8,5c1.2,0.5,6.7,1.2,8.9,2.2c2.2,1,3.5,4.2,3.5,4.2h1.7
			c0,0,1.2-1.5,2.2-2.5s7.4-2.8,8.4-2.8s4.2-0.8,4.4-4.3c0.2-3.5,3-4.2,4-4.2c1,0,3.2,1.5,0.8,3.2s-3.2,3.2-3.2,3.2s7.7,0.9,7.7-4.7
			c0-3.2-2.4-4.2-4.6-4.5h-3.1c0,0-3.3,0.2-4.4,4.6c-1,4.4-4.4,4.8-6.5,5.8c-2.2,1-5.7,3.8-5.7,3.8l-0.4,0.4l-0.4-0.4l-1.2-1.3
			c-0.3-0.8-3.3-2.7-6.5-3.6c-3.2-0.9-2.7-0.9-2.8-4.9c-0.2-4-5.4-4.3-5.4-4.3l0,0h-0.6c-1.3,0.2-4.9,1-5.1,4.3
			c-0.2,4,0.3,4-2.8,4.9c-3.2,0.9-6.2,2.8-6.5,3.6l-1.2,1.3l-2.6,0l-1.2-1.3c-0.3-0.8-3.3-2.7-6.5-3.6c-3.2-0.9-2.7-0.9-2.8-4.9
			c-0.2-4-5.4-4.3-5.4-4.3l0,0h-0.6c-1.3,0.2-4.9,1-5.1,4.3c-0.2,4,0.3,4-2.8,4.9c-3.2,0.9-6.2,2.8-6.5,3.6l-1.2,1.3l-2.6,0
			l-1.2-1.3c-0.3-0.8-3.3-2.7-6.5-3.6c-3.2-0.9-2.7-0.9-2.8-4.9c-0.2-4-5.4-4.3-5.4-4.3l0,0h-0.6c-1.3,0.2-4.9,1-5.1,4.3
			c-0.2,4,0.3,4-2.8,4.9c-3.2,0.9-6.2,2.8-6.5,3.6l-1.2,1.3h-2.7l-1.2-1.3c-0.3-0.8-3.3-2.7-6.5-3.6c-3.2-0.9-2.7-0.9-2.8-4.9
			c-0.1-3.3-3.8-4.1-5.1-4.3h-0.6l0,0c0,0-5.2,0.3-5.4,4.3c-0.2,4,0.3,4-2.8,4.9c-3.2,0.9-6.2,2.8-6.5,3.6l-1.2,1.3l-2.6,0l-1.2-1.3
			c-0.3-0.8-3.3-2.7-6.5-3.6c-3.2-0.9-2.7-0.9-2.8-4.9c-0.1-3.3-3.8-4.1-5.1-4.3h-0.6l0,0c0,0-5.2,0.3-5.4,4.3c-0.2,4,0.3,4-2.8,4.9
			c-3.2,0.9-6.2,2.8-6.5,3.6l-1.2,1.3l-2.6,0l-1.2-1.3c-0.3-0.8-3.3-2.7-6.5-3.6c-3.2-0.9-2.7-0.9-2.8-4.9c-0.1-3.3-3.8-4.1-5.1-4.3
			h-0.6l0,0c0,0-5.2,0.3-5.4,4.3c-0.2,4,0.3,4-2.8,4.9c-3.2,0.9-6.2,2.8-6.5,3.6l-1.2,1.3l-2.6,0l-1.2-1.3c-0.3-0.8-3.3-2.7-6.5-3.6
			c-3.2-0.9-2.7-0.9-2.8-4.9c-0.1-3.3-3.8-4.1-5.1-4.3h-0.6l0,0c0,0-5.2,0.3-5.4,4.3c-0.2,4,0.3,4-2.8,4.9c-3.2,0.9-6.2,2.8-6.5,3.6
			l-1.2,1.3l-0.4,0.4l-0.4-0.4c0,0-3.5-2.8-5.7-3.8c-2.2-1-5.5-1.3-6.5-5.8c-1-4.4-4.4-4.6-4.4-4.6h-3.1
			C57.7,343.1,55.3,344.1,55.3,347.3z"/>
		<path class="st2" d="M35.4,324v58.1H366V324H35.4z M352.7,353.8c-9,3.3-10.4,9.7-10.4,9.7l-6.9-1.7H202.4H199H66l-6.9,1.7
			c0,0-1.3-6.4-10.4-9.7c-9-3.3-6.4-11-6.4-11h3.8c0,0-2.5,6.7,4.9,10.4c7.4,3.7,8.7,8.1,8.7,8.1s-0.2-4.5-7-9.3
			c-6.8-4.8-3.9-9.3-3.9-9.3h11c1.7-0.2,3.1,0,3.1,0h10.4c0,0,6.3,4.3,6.3,11c0-6.8,6.3-11,6.3-11h10.4l0.1,0c0,0,0.2,0,0.4,0h10.7
			c0,0,6.3,4.3,6.3,11c0-6.8,6.3-11,6.3-11h10.9l0.1,0c0,0,0.2,0,0.4,0h10.5c0,0,6.3,4.3,6.3,11c0-6.8,6.3-11,6.3-11h11.1l0.1,0
			c0,0,0.2,0,0.4,0H177c0,0,6.3,4.3,6.3,11c0-6.8,6.3-11,6.3-11h7.5h3.6l0.1,0c0,0,0.2,0,0.4,0h3.3h7.5c0,0,6.3,4.3,6.3,11
			c0-6.8,6.3-11,6.3-11h10.6c0.3,0,0.4,0,0.4,0l0.1,0h11.1c0,0,6.3,4.3,6.3,11c0-6.8,6.3-11,6.3-11h10.5c0.3,0,0.4,0,0.4,0l0.1,0
			h10.9c0,0,6.3,4.3,6.3,11c0-6.8,6.3-11,6.3-11h10.7c0.3,0,0.4,0,0.4,0l0.1,0h10.4c0,0,6.3,4.3,6.3,11c0-6.8,6.3-11,6.3-11h10.4
			c0,0,1.5-0.2,3.1,0h11c0,0,2.9,4.5-3.9,9.3c-6.8,4.8-7,9.3-7,9.3s1.3-4.5,8.7-8.1c7.4-3.7,4.9-10.4,4.9-10.4h3.8
			C359.1,342.8,361.7,350.5,352.7,353.8z"/>
	</g>
</g>
</svg>
