<?xml version="1.0" encoding="utf-8"?>
<!-- Generator: Adobe Illustrator 21.0.0, SVG Export Plug-In . SVG Version: 6.00 Build 0)  -->
<svg version="1.1" id="Layer_1" xmlns="http://www.w3.org/2000/svg" xmlns:xlink="http://www.w3.org/1999/xlink" x="0px" y="0px"
	 viewBox="0 0 400 400" style="enable-background:new 0 0 400 400;" xml:space="preserve">
<style type="text/css">
	.st0{fill:#62A7B2;}
	.st1{fill:#1D1D1B;}
	.st2{fill:#CA8505;}
	.st3{fill:#313180;}
	.st4{fill:#E6E6E6;}
	.st5{fill:#E5D5BA;}
	.st6{fill:#D3E0E2;}
	.st7{fill:none;stroke:#CA8505;stroke-miterlimit:10;}
	.st8{clip-path:url(#SVGID_2_);}
	.st9{fill:#FFFFFF;}
	.st10{fill:#8F8F8F;}
	.st11{fill:#D3DFE2;}
	.st12{fill:#231F20;}
	.st13{fill:#61A5B1;}
	.st14{fill:#1C1C1C;}
	.st15{clip-path:url(#SVGID_6_);fill:#E4D5B9;}
	.st16{fill:none;stroke:#C88405;stroke-width:7;stroke-miterlimit:10;}
	.st17{fill:url(#SVGID_7_);}
	.st18{fill:url(#SVGID_8_);}
	.st19{fill:url(#SVGID_9_);}
	.st20{fill:url(#SVGID_10_);}
</style>
<g>
	<g>
		<path class="st2" d="M103.5,80.9c0,0,2.1-5.7-5.1-10.4c0,0,5.4,4.9,12.4,3.8C110.8,74.3,111.2,82.1,103.5,80.9z"/>
		<path class="st2" d="M134.2,89c0.5,1.3,0.7,2.7,0.5,4c-0.4,2-1.8,3.8-5.2,3.5c-4.6-0.4-8.4-1-12-8.6c-0.7-1.6-1.6-3-2.7-4.4
			c-1.2-1.4-2.7-2.9-4-3.1l-1.1,0.6c0,0,2.2,1.1,3.1,7.3c0.9,6.1,4.4,9.8,6.5,9.7c2.1-0.1,3.1-1.8,3.1-1.8s2.7,2.8,0.3,5.7
			c-1.5,1.8-6.4,4-11.3-4.5c-4.9-8.5-5.1-16.4-5.1-16.4s3.3-1,3.9-3.3c0.5-2.4,0.5-2.4,0.5-2.4s2.6-5.4,9.4-2.5s10.4,5.7,15.3,5
			c0,0,4.6,0.1,3.2-4.7c0,0,6.8,0.6,4.8,7.8s-9.7,5.1-11.9,4.4c-2.2-0.7-12.8-10.8-16.8-8.8c0,0,6.2,5,8,8.9
			c0.5,1.1,1.1,2.2,1.9,3.1c1.9,2.1,5.3,4.2,9.3-0.3L134.2,89z"/>
		<path class="st2" d="M158.4,72c0.6,3.5,7.7,16.6-4.8,25.8c0,0-8.7,5.4-20.4-2.3c0,0-0.7,1.2-3,1c0,0,11.7,10.9,26.9,1.6
			s8.4-26.2,8.4-26.2H158.4z"/>
		<path class="st2" d="M180.1,72c0,0-10.8,28.7,19.4,28.7S219.8,72,219.8,72h-6.7c0,0,9.7,27.1-13.6,27.1S186.4,72,186.4,72H180.1z"
			/>
		<path class="st2" d="M190.9,72c0,0-6.7,24.8,9.3,24.8S209,72,209,72H190.9z"/>
		<path class="st2" d="M167.1,72c0,0,4.1,11.2,4.1,29.9h2c0,0,1.1-25.1,3.7-29.9H167.1z"/>
		<polyline class="st2" points="201,11.2 361.1,11.2 361.1,0 201,0 198.7,0 38.6,0 38.6,11.2 198.7,11.2 		"/>
		<g>
			<path class="st2" d="M205.4,15.5c0.2,4-0.3,4,2.8,4.9c3.2,0.9,6.2,2.8,6.5,3.6l1.2,1.3h2.7l1.2-1.3c0.3-0.8,3.3-2.7,6.5-3.6
				c3.2-0.9,2.7-0.9,2.8-4.9c0.1-3.3,3.8-4.1,5.1-4.3h-10.6c0,0-6.3,4.3-6.3,11c0-6.8-6.3-11-6.3-11h-7.5h-3.3
				C201.5,11.3,205.2,12.1,205.4,15.5z"/>
			<path class="st2" d="M274.9,15.5c0.2,4-0.3,4,2.8,4.9c3.2,0.9,6.2,2.8,6.5,3.6l1.2,1.3l2.6,0l1.2-1.3c0.3-0.8,3.3-2.7,6.5-3.6
				c3.2-0.9,2.7-0.9,2.8-4.9c0.1-3.3,3.8-4.1,5.1-4.3H293c0,0-6.3,4.3-6.3,11c0-6.8-6.3-11-6.3-11h-10.9l0,0
				C269.6,11.2,274.7,11.5,274.9,15.5z"/>
			<path class="st2" d="M309.7,15.5c0.2,4-0.3,4,2.8,4.9c3.2,0.9,6.2,2.8,6.5,3.6l1.2,1.3l0.4,0.4l0.4-0.4c0,0,3.5-2.8,5.7-3.8
				c2.2-1,5.5-1.3,6.5-5.8s4.4-4.6,4.4-4.6h-10.4c0,0-6.3,4.3-6.3,11c0-6.8-6.3-11-6.3-11h-10.4l0,0
				C304.3,11.2,309.5,11.5,309.7,15.5z"/>
			<path class="st2" d="M170.6,15.5c0.2,4-0.3,4,2.8,4.9c3.2,0.9,6.2,2.8,6.5,3.6l1.2,1.3l2.6,0l1.2-1.3c0.3-0.8,3.3-2.7,6.5-3.6
				c3.2-0.9,2.7-0.9,2.8-4.9c0.2-4,5.4-4.3,5.4-4.3l0,0h-3.6h-7.5c0,0-6.3,4.3-6.3,11c0-6.8-6.3-11-6.3-11h-10.6
				C166.8,11.3,170.5,12.1,170.6,15.5z"/>
			<path class="st2" d="M240.2,15.5c0.2,4-0.3,4,2.8,4.9c3.2,0.9,6.2,2.8,6.5,3.6l1.2,1.3l2.6,0l1.2-1.3c0.3-0.8,3.3-2.7,6.5-3.6
				c3.2-0.9,2.7-0.9,2.8-4.9c0.1-3.3,3.8-4.1,5.1-4.3h-10.5c0,0-6.3,4.3-6.3,11c0-6.8-6.3-11-6.3-11h-11.1l0,0
				C234.8,11.2,240,11.5,240.2,15.5z"/>
			<path class="st2" d="M135.8,15.5c0.2,4-0.3,4,2.8,4.9c3.2,0.9,6.2,2.8,6.5,3.6l1.2,1.3l2.6,0l1.2-1.3c0.3-0.8,3.3-2.7,6.5-3.6
				c3.2-0.9,2.7-0.9,2.8-4.9s5.4-4.3,5.4-4.3l0,0h-11.1c0,0-6.3,4.3-6.3,11c0-6.8-6.3-11-6.3-11h-10.5
				C132,11.3,135.7,12.1,135.8,15.5z"/>
			<path class="st2" d="M358.2,11.2h-3.8c0,0,2.5,6.7-4.9,10.4c-7.4,3.7-8.7,8.1-8.7,8.1s0.2-4.5,7-9.3c6.8-4.8,3.9-9.3,3.9-9.3h-11
				c2.1,0.3,4.6,1.3,4.6,4.5c0,5.7-7.7,4.7-7.7,4.7s0.8-1.6,3.2-3.2c2.3-1.7,0.2-3.2-0.8-3.2c-1,0-3.8,0.7-4,4.2s-3.3,4.3-4.4,4.3
				s-7.4,1.8-8.4,2.8c-1,1-2.2,2.5-2.2,2.5h-1.7c0,0-1.3-3.2-3.5-4.2c-2.2-1-7.7-1.7-8.9-2.2c-1.2-0.5,0.8-3,0.8-5s-2.5-2.7-3.5-2.4
				l-0.1,0c-1-0.3-3.7,0.3-3.7,2.3s2,4.5,0.8,5c-1.2,0.5-6.7,1.2-8.9,2.2c-2.2,1-3.5,4.2-3.5,4.2l-4.3,0c0,0-1.3-3.2-3.5-4.2
				c-2.2-1-7.7-1.7-8.9-2.2c-1.2-0.5,0.8-3,0.8-5s-2.5-2.7-3.5-2.4l-0.1,0c-1-0.3-3.7,0.3-3.7,2.3s2,4.5,0.8,5
				c-1.2,0.5-6.7,1.2-8.9,2.2c-2.2,1-3.5,4.2-3.5,4.2l-4.3,0c0,0-1.3-3.2-3.5-4.2s-7.7-1.7-8.9-2.2c-1.2-0.5,0.8-3,0.8-5
				s-2.5-2.7-3.5-2.4l-0.1,0c-1-0.3-3.7,0.3-3.7,2.3s2,4.5,0.8,5c-1.2,0.5-6.7,1.2-8.9,2.2c-2.2,1-3.5,4.2-3.5,4.2h-4.3
				c0,0-1.3-3.2-3.5-4.2c-2.2-1-7.7-1.7-8.9-2.2c-1.2-0.5,0.8-3,0.8-5s-2.7-2.7-3.7-2.3l-0.1,0c-1-0.3-3.5,0.4-3.5,2.4s2,4.5,0.8,5
				c-1.2,0.5-6.7,1.2-8.9,2.2s-3.5,4.2-3.5,4.2l-4.3,0c0,0-1.3-3.2-3.5-4.2c-2.2-1-7.7-1.7-8.9-2.2c-1.2-0.5,0.8-3,0.8-5
				s-2.7-2.7-3.7-2.3l-0.1,0c-1-0.3-3.5,0.4-3.5,2.4s2,4.5,0.8,5c-1.2,0.5-6.7,1.2-8.9,2.2s-3.5,4.2-3.5,4.2l-4.3,0
				c0,0-1.3-3.2-3.5-4.2c-2.2-1-7.7-1.7-8.9-2.2c-1.2-0.5,0.8-3,0.8-5s-2.7-2.7-3.7-2.3l-0.1,0c-1-0.3-3.5,0.4-3.5,2.4s2,4.5,0.8,5
				s-6.7,1.2-8.9,2.2s-3.5,4.2-3.5,4.2l-4.3,0c0,0-1.3-3.2-3.5-4.2c-2.2-1-7.7-1.7-8.9-2.2c-1.2-0.5,0.8-3,0.8-5s-2.7-2.7-3.7-2.3
				l-0.1,0c-1-0.3-3.5,0.4-3.5,2.4s2,4.5,0.8,5s-6.7,1.2-8.9,2.2c-2.2,1-3.5,4.2-3.5,4.2h-1.7c0,0-1.2-1.5-2.2-2.5
				c-1-1-7.4-2.8-8.4-2.8c-1,0-4.2-0.8-4.4-4.3c-0.2-3.5-3-4.2-4-4.2s-3.2,1.5-0.8,3.2c2.3,1.7,3.2,3.2,3.2,3.2s-7.7,0.9-7.7-4.7
				c0-3.2,2.4-4.2,4.6-4.5H48c0,0-2.9,4.5,3.9,9.3s7,9.3,7,9.3s-1.3-4.5-8.7-8.1s-4.9-10.4-4.9-10.4h-3.8c0,0-2.7,7.7,6.4,11
				s10.4,9.7,10.4,9.7l6.9-1.7h133.1h3.4h133.1l6.9,1.7c0,0,1.3-6.4,10.4-9.7S358.2,11.2,358.2,11.2z"/>
			<path class="st2" d="M66.4,15.8c1,4.4,4.4,4.8,6.5,5.8c2.2,1,5.7,3.8,5.7,3.8l0.4,0.4l0.4-0.4l1.2-1.3c0.3-0.8,3.3-2.7,6.5-3.6
				c3.2-0.9,2.7-0.9,2.8-4.9c0.2-4,5.4-4.3,5.4-4.3l0,0H85c0,0-6.3,4.3-6.3,11c0-6.8-6.3-11-6.3-11H62.1
				C62.1,11.2,65.4,11.3,66.4,15.8z"/>
			<path class="st2" d="M101.1,15.5c0.2,4-0.3,4,2.8,4.9c3.2,0.9,6.2,2.8,6.5,3.6l1.2,1.3l2.6,0l1.2-1.3c0.3-0.8,3.3-2.7,6.5-3.6
				c3.2-0.9,2.7-0.9,2.8-4.9s5.4-4.3,5.4-4.3l0,0h-10.9c0,0-6.3,4.3-6.3,11c0-6.8-6.3-11-6.3-11H96C97.3,11.3,100.9,12.1,101.1,15.5
				z"/>
			<path class="st2" d="M130.3,11.1l-0.1,0h0.6C130.5,11.1,130.3,11.1,130.3,11.1z"/>
			<path class="st2" d="M95.6,11.1l-0.1,0H96C95.7,11.1,95.6,11.1,95.6,11.1z"/>
			<path class="st2" d="M59,11.2h3.1C62.1,11.2,60.6,10.9,59,11.2z"/>
			<path class="st2" d="M165.1,11.1l-0.1,0h0.6C165.2,11.1,165.1,11.1,165.1,11.1z"/>
			<path class="st2" d="M199.8,11.1l-0.1,0h0.6C200,11.1,199.8,11.1,199.8,11.1z"/>
			<path class="st2" d="M304.2,11.1c0,0-0.2,0-0.4,0h0.6L304.2,11.1z"/>
			<path class="st2" d="M337.6,11.2h3.1C339.1,10.9,337.6,11.2,337.6,11.2z"/>
			<path class="st2" d="M234.6,11.1c0,0-0.2,0-0.4,0h0.6L234.6,11.1z"/>
			<path class="st2" d="M269.4,11.1c0,0-0.2,0-0.4,0h0.6L269.4,11.1z"/>
		</g>
		<path class="st2" d="M204.3,30.2h130.5c0,0,10.3,1.7,20,5c9.8,3.3,32.8,18.1,36.7,42.8s0.2,35.8-12.5,52.2
			c-12.7,16.4-43.8,16-43.8,16s-22.1-0.4-35.7-24.4c-6.6-11.6-7.5-25.7-1.7-37.7c4.4-9.1,12.7-17.8,28.8-18.7
			c7.3-0.4,14.7,1.2,20.9,5.1c6.4,4,12.8,11,11.2,22.6c-3,22.1-19.5,21.8-25.5,21.8c-12.1,0-21.8-17.6-10.4-26.6
			c6.2-4.9,11.3-2.9,14.5-0.4c3.1,2.5,4.4,6.6,3,10.3c-1.1,3-4.3,6.9-10.8,4.4c-7.7-3-2.2-12-2.2-12l-2.8,2.7c-2,4.7-1.3,9.7,5,13.4
			c6.4,3.7,14.4,1,18.4-4c4-5,4-14.1-2.5-23.8c-6.5-9.7-23.3-8-32.3-2.3c-9,5.7-16.4,26.1-6.7,41.8s23.1,20.4,44.5,17.1
			c21.4-3.3,29.8-29.1,31.5-33.1s1.3-28.8-15.1-46.5c-16.4-17.7-42.8-16.4-42.8-16.4H201.5h-3.4H75.3c0,0-26.4-1.3-42.8,16.4
			s-16.7,42.5-15.1,46.5s10,29.8,31.5,33.1c21.4,3.3,34.8-1.3,44.5-17.1s2.3-36.1-6.7-41.8c-9-5.7-25.8-7.4-32.3,2.3
			s-6.5,18.7-2.5,23.8s12,7.7,18.4,4c6.4-3.7,7-8.7,5-13.4l-2.8-2.7c0,0,5.5,9-2.2,12c-6.5,2.5-9.7-1.3-10.8-4.4
			c-1.4-3.7,0-7.8,3-10.3c3.2-2.5,8.3-4.5,14.5,0.4c11.4,9.1,1.8,26.6-10.4,26.6c-5.9,0-22.4,0.3-25.5-21.8
			c-1.6-11.6,4.8-18.6,11.2-22.6c6.2-3.9,13.6-5.5,20.9-5.1c16.1,1,24.4,9.6,28.8,18.7c5.8,12,4.9,26.1-1.7,37.7
			c-13.6,23.9-35.7,24.4-35.7,24.4s-31.1,0.4-43.8-16S4.4,102.9,8.2,78.1s26.9-39.5,36.7-42.8s20-5,20-5h130.5"/>
		<path class="st2" d="M296.2,80.9c0,0-2.1-5.7,5.1-10.4c0,0-5.4,4.9-12.4,3.8C288.9,74.3,288.5,82.1,296.2,80.9z"/>
		<path class="st2" d="M265.5,89c-0.5,1.3-0.7,2.7-0.5,4c0.4,2,1.8,3.8,5.2,3.5c4.6-0.4,8.4-1,12-8.6c0.7-1.6,1.6-3,2.7-4.4
			c1.2-1.4,2.7-2.9,4-3.1L290,81c0,0-2.2,1.1-3.1,7.3c-0.9,6.1-4.4,9.8-6.5,9.7c-2.1-0.1-3.1-1.8-3.1-1.8s-2.7,2.8-0.3,5.7
			c1.5,1.8,6.4,4,11.3-4.5c4.9-8.5,5.1-16.4,5.1-16.4s-3.3-1-3.9-3.3c-0.5-2.4-0.5-2.4-0.5-2.4s-2.6-5.4-9.4-2.5
			c-6.8,2.9-10.4,5.7-15.3,5c0,0-4.6,0.1-3.2-4.7c0,0-6.8,0.6-4.8,7.8c2,7.2,9.7,5.1,11.9,4.4c2.2-0.7,12.8-10.8,16.8-8.8
			c0,0-6.2,5-8,8.9c-0.5,1.1-1.1,2.2-1.9,3.1c-1.9,2.1-5.3,4.2-9.3-0.3L265.5,89z"/>
		<path class="st2" d="M241.3,72c-0.6,3.5-7.7,16.6,4.8,25.8c0,0,8.7,5.4,20.4-2.3c0,0,0.7,1.2,3,1c0,0-11.7,10.9-26.9,1.6
			S234.2,72,234.2,72H241.3z"/>
		<path class="st2" d="M232.6,72c0,0-4.1,11.2-4.1,29.9h-2c0,0-1.1-25.1-3.7-29.9H232.6z"/>
		<path class="st2" d="M201.5,103.5h92.4c0,5,2.2,11,2.2,11h-94.4H198h-94.4c0,0,2.2-6,2.2-11h92.4H201.5z"/>
		<path class="st2" d="M204.6,114.5h91.5c0,0,1.7,4.8,3.3,7.4h-97.9h-3.4h-97.9c1.6-2.6,3.3-7.4,3.3-7.4h91.5"/>
		<polygon class="st2" points="92.3,72 312.5,72 320.9,70.5 81.8,70.5 		"/>
	</g>
	<path class="st2" d="M299.4,121.9H100.3L89,1354.7h221.8L299.4,121.9z M132.3,1325.4h-12.8v-1159c0,0-1.5-13.6,5.7-13.6
		c7.2,0,7.2,13.6,7.2,13.6V1325.4z M161.4,1325.4h-12.8v-1159c0,0-1.5-13.6,5.7-13.6c7.2,0,7.2,13.6,7.2,13.6V1325.4z M190.6,1325.4
		h-12.8v-1159c0,0-1.5-13.6,5.7-13.6c7.2,0,7.2,13.6,7.2,13.6V1325.4z M219.7,1325.4h-12.8v-1159c0,0-1.5-13.6,5.7-13.6
		c7.2,0,7.2,13.6,7.2,13.6V1325.4z M248.9,1325.4H236v-1159c0,0-1.5-13.6,5.7-13.6c7.2,0,7.2,13.6,7.2,13.6V1325.4z M278,1325.4
		h-12.8v-1159c0,0-1.5-13.6,5.7-13.6s7.2,13.6,7.2,13.6V1325.4z"/>
</g>
</svg>
